<svg width="150" height="130" viewBox="0 0 150 130" fill="none" xmlns="http://www.w3.org/2000/svg">
<g clip-path="url(#clip0_2023_6)">
<path d="M122.139 32.1442L120.493 35.5135C114.917 32.7889 112.599 26.0429 115.324 20.4667L116.97 17.0974C122.546 19.822 124.864 26.568 122.139 32.1442Z" fill="#659922"/>
<path d="M135.539 30.3445L142.278 33.6371C139.553 39.2133 132.807 41.5308 127.231 38.8061L120.493 35.5136C123.217 29.9374 129.963 27.6199 135.539 30.3445Z" fill="#659922"/>
<path d="M85.8613 8.15791C85.8613 8.15791 104.38 19.5019 108.28 37.0173C103.102 38.3896 96.8195 40.9544 90.6244 45.7322C84.7039 50.2894 78.8524 56.8837 74.1091 66.3777C66.4699 58.1375 62.5014 46.9119 65.057 38.4358C65.3008 37.595 65.6121 36.7872 65.9907 36.0122C71.7528 24.2197 79.2762 21.6351 85.8613 8.15791Z" fill="#659922"/>
<path d="M120.493 35.5136C120.493 35.5136 140.824 57.9687 124.361 91.6617C107.898 125.355 77.6891 123.116 77.6891 123.116C77.6891 123.116 67.4813 111.846 67.3953 93.2731C67.3505 85.6342 69.0222 76.7889 73.8211 66.9674C73.9199 66.7652 74.0104 66.5799 74.1092 66.3777C78.8524 56.8838 84.704 50.2894 90.6244 45.7322C96.8196 40.9544 103.102 38.3896 108.28 37.0173C115.416 35.1407 120.493 35.5136 120.493 35.5136Z" fill="#C29C42"/>
<path d="M67.3953 93.2731C65.4662 94.146 63.4274 94.9446 61.2625 95.7023C25.4593 107.988 5.49098 84.8333 5.49098 84.8333C5.49098 84.8333 7.01446 54.2958 42.809 41.9852C51.0847 39.1423 58.5142 38.2022 65.0402 38.4276L65.0571 38.4358C62.5015 46.9119 66.47 58.1374 74.1092 66.3777L73.8211 66.9673C69.0222 76.7888 67.3505 85.6342 67.3953 93.2731Z" fill="#C29C42"/>
<path d="M126.786 38.5887L127.231 38.806C133.732 41.9825 141.608 39.2782 144.786 32.7754L145.609 31.0908L137.186 26.975C133.493 25.1707 129.36 25.2672 125.894 26.8754C126.44 21.5556 123.694 16.2089 118.616 13.728L116.931 12.9048L114.462 17.9588C112.113 22.7668 112.987 28.3193 116.226 32.1747C114.597 32.3489 112.654 32.6434 110.482 33.1388C105.689 16.0827 88.4215 5.33941 87.6634 4.87508L85.9051 3.79685L84.9997 5.64997C81.7128 12.3768 78.1499 16.333 74.7057 20.1573C71.4234 23.7999 68.029 27.5692 65.1291 33.5043C64.9159 33.9406 64.7364 34.3976 64.5595 34.8537C57.5955 34.79 50.3624 36.0159 43.0254 38.535C6.44661 51.1009 4.46021 82.7353 4.44385 83.055L4.40793 83.8033L4.89865 84.3707C4.99529 84.4847 9.7064 89.8084 18.4868 94.0986C28.3488 98.9173 43.3425 102.429 62.6927 95.7813C63.9892 95.3359 65.2552 94.8505 66.4992 94.3461C67.5529 111.815 76.9808 122.531 77.1231 122.689L77.6255 123.245L78.3723 123.301C78.687 123.323 110.043 125.234 126.868 90.8C138.719 66.5461 131.918 47.703 126.786 38.5887ZM135.539 30.3443L140.423 32.7306C137.765 36.188 132.946 37.4246 128.877 35.4367L123.994 33.0504C126.651 29.593 131.471 28.3564 135.539 30.3443ZM117.831 19.6051L118.571 18.0906C122.029 20.7482 123.265 25.5678 121.277 29.6363L120.537 31.1508C117.08 28.4932 115.843 23.6735 117.831 19.6051ZM77.4918 22.6685C80.7766 19.0209 84.1618 15.2617 87.3911 9.21209C91.7464 12.3043 103.25 21.481 106.835 34.1113C102.66 35.3856 97.9491 37.4035 93.1941 40.5664C93.1294 39.1826 93.0489 37.8097 92.9519 36.4622L100.144 25.8691L97.0411 23.7625L92.4308 30.5543C91.5369 21.9412 90.3067 15.4302 90.2873 15.3331L86.6041 16.0376C86.6253 16.1523 88.4566 25.8536 89.242 37.1871C84.7821 32.0071 79.0751 27.9017 78.756 27.6749L76.5777 30.7279C76.6705 30.7941 85.4612 37.1261 89.2234 43.4908C83.9926 47.7256 78.8808 53.498 74.5547 61.3865C67.6529 52.8201 65.0897 42.1267 68.4984 35.1506C71.1678 29.6872 74.2402 26.2781 77.4918 22.6685ZM61.4737 92.237C30.4731 102.885 11.5878 85.834 8.26406 82.4758C8.80894 77.7816 13.1569 52.7602 44.2435 42.081C50.8307 39.8195 57.308 38.6542 63.5438 38.5938C62.1797 46.7755 65.5656 56.8316 72.7111 65.0017C68.2439 74.3321 66.5257 82.8542 66.4036 90.3177C64.8133 91.0014 63.1698 91.6529 61.4737 92.237ZM79.421 119.592C76.528 115.937 62.0323 95.3647 76.3287 66.1057C90.7568 36.5771 115.613 35.5748 120.407 35.6676C123.3 39.3224 137.795 59.8947 123.499 89.1538C109.071 118.682 84.215 119.685 79.421 119.592Z" fill="black"/>
<path d="M120.506 41.3245C120.061 40.3912 118.929 40.0657 118.025 40.5669C117.119 41.0691 116.773 42.2096 117.21 43.1493C119.438 47.9494 125.059 62.231 119.954 74.9005C119.567 75.861 119.946 76.9833 120.876 77.4379C121.806 77.8925 122.935 77.508 123.332 76.5514C129.304 62.1464 122.936 46.4195 120.506 41.3245Z" fill="black"/>
<path d="M19.13 70.1548C18.6861 71.0887 19.1472 72.1726 20.1064 72.5586C21.0675 72.9453 22.1704 72.4943 22.6249 71.5632C24.946 66.8075 32.4878 53.4402 45.5406 49.4152C46.5301 49.1101 47.1627 48.1087 46.929 47.0999C46.6953 46.0911 45.6852 45.4573 44.6926 45.7526C29.7461 50.1987 21.5529 65.0565 19.13 70.1548Z" fill="black"/>
<path d="M81.8105 71.9949C82.0422 71.4936 81.8418 70.8864 81.3456 70.6439L79.7732 69.8757C79.277 69.6332 78.6727 69.8481 78.4398 70.3489C68.4879 91.7513 78.049 109.276 80.5532 113.266C80.8471 113.734 81.4638 113.833 81.9146 113.513L83.3422 112.499C83.7918 112.18 83.9079 111.558 83.6227 111.086C81.3408 107.312 72.9201 91.2225 81.8105 71.9949Z" fill="black"/>
<path d="M100.777 49.7955C101.753 49.4537 102.382 48.433 102.155 47.4235C101.928 46.4118 100.923 45.7845 99.9385 46.1087C96.5079 47.238 89.0442 50.4166 84.7076 57.6784C84.1767 58.5675 84.5679 59.6973 85.4983 60.1519C86.4287 60.6065 87.5439 60.2145 88.0915 59.3356C91.6752 53.5838 97.7679 50.8483 100.777 49.7955Z" fill="black"/>
<path d="M108.342 81.7403C107.359 82.0762 106.806 83.1567 106.976 84.1817C107.353 86.4514 107.615 90.5805 105.869 95.1478C105.499 96.1151 105.875 97.2375 106.806 97.6921C107.736 98.1467 108.866 97.7628 109.251 96.8012C111.615 90.8845 111.1 85.6012 110.57 82.942C110.368 81.9283 109.32 81.4062 108.342 81.7403Z" fill="black"/>
<path d="M85.7285 85.3066C86.6589 85.7612 87.7754 85.3705 88.3111 84.4843C90.24 81.2938 92.7109 79.0665 94.2773 77.8538C95.0995 77.2173 95.3857 76.0573 94.8598 75.1603C94.3378 74.2653 93.1978 73.972 92.3659 74.5897C90.5053 75.9709 87.3422 78.7124 84.9307 82.8302C84.4074 83.7237 84.7981 84.8519 85.7285 85.3066Z" fill="black"/>
<path d="M107.725 61.5509C107.524 62.0655 107.724 62.6644 108.221 62.9068L109.793 63.6751C110.289 63.9175 110.893 63.71 111.105 63.2C113.477 57.4908 111.235 53.4347 110.029 51.8231C109.697 51.3798 109.067 51.3806 108.679 51.7756L107.43 53.0467C107.053 53.4305 107.048 54.0467 107.334 54.5027C108.062 55.6663 109.064 58.1099 107.725 61.5509Z" fill="black"/>
<path d="M89.5483 102.911C88.6075 103.349 88.0905 104.431 88.4284 105.412C88.765 106.39 89.8242 106.903 90.7673 106.479C92.9932 105.478 96.8343 103.403 99.1398 100.197C99.7445 99.3562 99.3513 98.2235 98.4209 97.7689C97.4905 97.3143 96.3713 97.7125 95.7137 98.5124C93.9958 100.602 91.3028 102.094 89.5483 102.911Z" fill="black"/>
<path d="M44.473 88.1683C43.9221 88.2032 43.4939 88.6683 43.5172 89.2199L43.5912 90.9689C43.6145 91.5205 44.0805 91.9498 44.6315 91.9159C45.2589 91.8774 45.888 91.8272 46.5151 91.766C47.0646 91.7123 47.4573 91.215 47.3935 90.6666L47.1913 88.9277C47.1275 88.3788 46.6305 87.9867 46.0805 88.0398C45.545 88.0914 45.0082 88.1343 44.473 88.1683Z" fill="black"/>
<path d="M59.0381 85.1433C58.5867 85.2984 58.1386 85.4467 57.6905 85.5908L58.8367 89.1602C59.3075 89.0083 59.7823 88.8521 60.2546 88.6885C61.0112 88.43 61.7492 88.1625 62.4711 87.885L61.1293 84.3829C60.4465 84.644 59.752 84.8994 59.0381 85.1433Z" fill="black"/>
<path d="M51.6328 87.1927C51.0915 87.305 50.7338 87.8276 50.8365 88.3708L51.1616 90.0898C51.2642 90.6326 51.7877 90.9902 52.3287 90.8783C52.9342 90.753 53.5426 90.6173 54.1536 90.4708C54.6904 90.3421 55.0121 89.7965 54.8749 89.2619L54.4397 87.5665C54.3024 87.0316 53.7578 86.7102 53.2207 86.8383C52.6893 86.965 52.16 87.0832 51.6328 87.1927Z" fill="black"/>
<path d="M59.975 51.8382C60.5233 51.7746 60.9284 51.2895 60.8785 50.7397L60.7201 48.9971C60.6701 48.4468 60.1833 48.0403 59.6344 48.1029C56.295 48.4838 52.8349 49.2536 49.3213 50.3967C48.7961 50.5676 48.5182 51.1374 48.6977 51.6597L49.266 53.3139C49.4454 53.8364 50.0144 54.1134 50.5399 53.9429C53.7641 52.897 56.9296 52.1915 59.975 51.8382Z" fill="black"/>
<path d="M23.0219 78.833C21.939 78.2452 20.5692 78.5629 19.9146 79.6067C19.2488 80.6684 19.5766 82.074 20.6756 82.6763C21.3511 83.0465 22.0366 83.4017 22.7269 83.739C27.5337 86.0877 32.6433 87.6348 37.9429 88.3486C39.2201 88.5206 40.3403 87.5364 40.3995 86.249C40.4554 85.0344 39.5421 83.9981 38.3374 83.8339C32.9527 83.0998 27.7457 81.3969 23.0219 78.833Z" fill="black"/>
<path d="M66.8655 68.0311C67.5298 67.0517 67.0818 65.7613 66.0185 65.2417C64.9551 64.7222 63.6743 65.169 62.9751 66.1238C60.4292 69.6005 55.4426 73.2297 50.465 72.027C49.4584 71.7838 48.336 72.1441 47.8814 73.0745C47.4268 74.0049 47.8108 75.1433 48.7952 75.4646C56.0642 77.8372 63.3751 73.1766 66.8655 68.0311Z" fill="black"/>
<path d="M34.6851 66.2145C34.1055 67.0726 34.4999 68.2056 35.4303 68.6602C36.3607 69.1148 37.4739 68.716 38.0966 67.8886C40.3964 64.833 44.2178 63.2229 46.4703 62.4973C47.4582 62.179 48.1269 61.1678 47.9308 60.1486C47.7364 59.1384 46.7599 58.4844 45.7748 58.7807C43.0038 59.614 37.7247 61.714 34.6851 66.2145Z" fill="black"/>
</g>
<defs>
<clipPath id="clip0_2023_6">
<rect width="150" height="130" fill="white"/>
</clipPath>
</defs>
</svg>
