<svg width="17" height="16" viewBox="0 0 17 16" fill="none" xmlns="http://www.w3.org/2000/svg">
<path fill-rule="evenodd" clip-rule="evenodd" d="M16.5 8.0002C16.5 8.44493 16.1654 8.80546 15.7527 8.80546L1.24725 8.80546C0.834555 8.80546 0.499999 8.44493 0.499999 8.0002C0.499999 7.55546 0.834555 7.19493 1.24725 7.19493L15.7527 7.19493C16.1654 7.19493 16.5 7.55546 16.5 8.0002Z" fill="currentColor"/>
<path fill-rule="evenodd" clip-rule="evenodd" d="M7.70971 14.9643C7.41788 15.2788 6.94475 15.2788 6.65293 14.9643L0.718863 8.5696C0.427043 8.25513 0.427043 7.74526 0.718863 7.43079L6.65293 1.03605C6.94475 0.721578 7.41789 0.721578 7.70971 1.03605C8.00153 1.35053 8.00153 1.86039 7.70971 2.17487L2.30403 8.0002L7.70971 13.8255C8.00153 14.14 8.00153 14.6499 7.70971 14.9643Z" fill="currentColor"/>
</svg>
