<svg width="17" height="16" viewBox="0 0 17 16" fill="none" xmlns="http://www.w3.org/2000/svg">
<path fill-rule="evenodd" clip-rule="evenodd" d="M0.499999 8.0002C0.499999 8.44493 0.834556 8.80546 1.24725 8.80546L15.7527 8.80546C16.1654 8.80546 16.5 8.44493 16.5 8.0002C16.5 7.55546 16.1654 7.19493 15.7527 7.19493L1.24725 7.19493C0.834556 7.19493 0.499999 7.55546 0.499999 8.0002Z" fill="currentColor"/>
<path fill-rule="evenodd" clip-rule="evenodd" d="M9.29029 14.9643C9.58212 15.2788 10.0552 15.2788 10.3471 14.9643L16.2811 8.5696C16.573 8.25513 16.573 7.74526 16.2811 7.43079L10.3471 1.03605C10.0552 0.721578 9.58211 0.721578 9.29029 1.03605C8.99847 1.35053 8.99847 1.86039 9.29029 2.17487L14.696 8.0002L9.29029 13.8255C8.99847 14.14 8.99847 14.6499 9.29029 14.9643Z" fill="currentColor"/>
</svg>
