<svg width="17" height="17" viewBox="0 0 17 17" fill="none" xmlns="http://www.w3.org/2000/svg">
<path fill-rule="evenodd" clip-rule="evenodd" d="M16.5 8.5002C16.5 8.94493 16.1654 9.30546 15.7527 9.30546L1.24725 9.30546C0.834555 9.30546 0.499999 8.94493 0.499999 8.5002C0.499999 8.05546 0.834555 7.69493 1.24725 7.69493L15.7527 7.69493C16.1654 7.69493 16.5 8.05546 16.5 8.5002Z" fill="currentColor"/>
<path fill-rule="evenodd" clip-rule="evenodd" d="M7.70971 15.4643C7.41788 15.7788 6.94475 15.7788 6.65293 15.4643L0.718863 9.0696C0.427043 8.75513 0.427043 8.24526 0.718863 7.93079L6.65293 1.53605C6.94475 1.22158 7.41789 1.22158 7.70971 1.53605C8.00153 1.85053 8.00153 2.36039 7.70971 2.67487L2.30403 8.5002L7.70971 14.3255C8.00153 14.64 8.00153 15.1499 7.70971 15.4643Z" fill="currentColor"/>
</svg>
