<svg width="60" height="60" viewBox="0 0 200 200" fill="none" xmlns="http://www.w3.org/2000/svg">
<path d="M175 175V56.25L118.75 0H50C43.3696 0 37.0107 2.63392 32.3223 7.32233C27.6339 12.0107 25 18.3696 25 25V175C25 181.63 27.6339 187.989 32.3223 192.678C37.0107 197.366 43.3696 200 50 200H150C156.63 200 162.989 197.366 167.678 192.678C172.366 187.989 175 181.63 175 175ZM118.75 37.5C118.75 42.4728 120.725 47.2419 124.242 50.7583C127.758 54.2746 132.527 56.25 137.5 56.25H162.5V175C162.5 178.315 161.183 181.495 158.839 183.839C156.495 186.183 153.315 187.5 150 187.5H50C46.6848 187.5 43.5054 186.183 41.1612 183.839C38.817 181.495 37.5 178.315 37.5 175V25C37.5 21.6848 38.817 18.5054 41.1612 16.1612C43.5054 13.817 46.6848 12.5 50 12.5H118.75V37.5Z" fill="#DAC48E"/>
</svg>
