<svg width="61" height="60" viewBox="0 0 61 60" fill="none" xmlns="http://www.w3.org/2000/svg">
<path fill-rule="evenodd" clip-rule="evenodd" d="M56.5 16.8736V52.4956C56.5 54.4845 55.7173 56.392 54.3242 57.7984C52.9311 59.2048 51.0416 59.9949 49.0714 59.9949H45.3571V56.2452H49.0714C50.0565 56.2452 51.0013 55.8502 51.6978 55.147C52.3944 54.4438 52.7857 53.49 52.7857 52.4956V16.8736H45.3571C43.8795 16.8736 42.4624 16.281 41.4175 15.2262C40.3727 14.1714 39.7857 12.7408 39.7857 11.249V3.74968H19.3571C18.3721 3.74968 17.4273 4.14474 16.7307 4.84794C16.0342 5.55114 15.6429 6.50489 15.6429 7.49937V41.2465H11.9286V7.49937C11.9286 5.51041 12.7112 3.60292 14.1043 2.19651C15.4975 0.79011 17.387 0 19.3571 0L39.7857 0L56.5 16.8736ZM40.38 47.366C40.6623 47.9409 40.8356 48.5559 40.9 49.2108H38.0177C37.9503 48.8814 37.8285 48.5658 37.6574 48.2772C37.4919 48.0027 37.2779 47.7612 37.026 47.5647C36.7655 47.3514 36.4666 47.191 36.1457 47.0923C35.7859 46.9808 35.4115 46.9252 35.0351 46.9273C33.9753 46.9273 33.152 47.3048 32.5651 48.0597C31.9857 48.8121 31.696 49.8745 31.696 51.2469V53.1143C31.696 53.9917 31.8161 54.7604 32.0563 55.4203C32.2759 56.0361 32.6682 56.5742 33.1854 56.9689C33.7544 57.3529 34.4294 57.5446 35.1131 57.5164C35.6992 57.5333 36.2808 57.41 36.8106 57.1564C37.2347 56.9315 37.5855 56.5878 37.8209 56.1665C38.0437 55.7565 38.1564 55.3028 38.1589 54.8054V53.8492H35.1057V51.6369H40.9594V54.6291C40.9594 55.3541 40.8393 56.0415 40.5991 56.6915C40.3603 57.335 39.9895 57.9202 39.5109 58.4088C38.9868 58.9265 38.3602 59.3265 37.6723 59.5825C36.9393 59.8599 36.0764 59.9987 35.0834 59.9987C34.1283 60.0168 33.1787 59.8487 32.2866 59.5037C31.5288 59.1906 30.8517 58.7071 30.3069 58.0901C29.7647 57.4568 29.3599 56.716 29.1183 55.9153C28.8494 55.0093 28.718 54.0675 28.7283 53.1218V51.2244C28.7283 49.867 28.9759 48.6796 29.4711 47.6622C29.9689 46.6473 30.6894 45.8561 31.6329 45.2887C32.5837 44.7187 33.7302 44.4337 35.0723 44.4337C35.9563 44.4337 36.7437 44.5587 37.4346 44.8087C38.1279 45.0587 38.7222 45.4024 39.2174 45.8399C39.7127 46.2773 40.1014 46.786 40.3837 47.366H40.38ZM4.5 55.4428C4.5 56.0578 4.60152 56.639 4.80457 57.1864C5.0101 57.7364 5.31095 58.2238 5.70714 58.6488C6.11571 59.0738 6.61962 59.4075 7.21886 59.65C7.828 59.8824 8.53248 59.9987 9.33229 59.9987C10.8923 59.9987 12.1106 59.5675 12.9871 58.705C13.8711 57.8401 14.3144 56.584 14.3169 54.9366V44.7187H11.3789V55.0116C11.3789 55.769 11.208 56.3515 10.8663 56.759C10.5246 57.1664 10.0021 57.3714 9.29886 57.3739C8.96124 57.3896 8.62579 57.312 8.32864 57.1495C8.03148 56.9869 7.7839 56.7456 7.61257 56.4515C7.44445 56.1403 7.35154 55.7934 7.34143 55.4391H4.5V55.4428ZM22.7743 44.7187H16.8389V59.7175H19.7769V54.6816H22.7594C23.8242 54.6816 24.7305 54.4666 25.4783 54.0367C26.2335 53.5942 26.8068 53.0005 27.198 52.2556C27.5991 51.5006 27.7985 50.6545 27.796 49.717C27.796 48.7821 27.6004 47.9359 27.2091 47.1785C26.8172 46.4322 26.2251 45.8124 25.5006 45.3899C24.7577 44.9399 23.8514 44.7162 22.7817 44.7187H22.7743ZM24.8023 49.717C24.8155 50.2123 24.707 50.7031 24.4866 51.1457C24.2888 51.529 23.9806 51.8428 23.6026 52.0456C23.1699 52.2607 22.6918 52.3662 22.2097 52.3531H19.7657V47.081H22.2171C23.0269 47.081 23.6608 47.3085 24.1189 47.7635C24.577 48.2159 24.8023 48.8671 24.8023 49.717Z" fill="#DAC48E"/>
</svg>
