<svg width="60" height="60" viewBox="0 0 60 60" fill="none" xmlns="http://www.w3.org/2000/svg">
<path fill-rule="evenodd" clip-rule="evenodd" d="M56.0001 16.8736V52.4956C56.0001 54.4845 55.2175 56.392 53.8244 57.7984C52.4312 59.2048 50.5417 59.9949 48.5716 59.9949H44.8573V56.2452H48.5716C49.5567 56.2452 50.5014 55.8502 51.198 55.147C51.8945 54.4438 52.2859 53.49 52.2859 52.4956V16.8736H44.8573C43.3797 16.8736 41.9625 16.281 40.9177 15.2262C39.8728 14.1714 39.2859 12.7408 39.2859 11.249V3.74968H18.8573C17.8722 3.74968 16.9274 4.14474 16.2309 4.84794C15.5343 5.55114 15.143 6.50489 15.143 7.49937V41.2465H11.4287V7.49937C11.4287 5.51041 12.2114 3.60292 13.6045 2.19651C14.9976 0.79011 16.8871 0 18.8573 0L39.2859 0L56.0001 16.8736Z" fill="#DAC48E"/>
<path d="M5.4332 59.8004H0.5V45.1996H5.42669C6.78652 45.1996 7.95737 45.4919 8.93923 46.0765C9.92544 46.6564 10.6857 47.4929 11.2201 48.586C11.7545 49.6744 12.0217 50.9767 12.0217 52.4929C12.0217 54.0138 11.7545 55.3208 11.2201 56.414C10.6901 57.5071 9.93195 58.346 8.94575 58.9306C7.95954 59.5105 6.78869 59.8004 5.4332 59.8004ZM3.72581 56.7918H5.30938C6.05664 56.7918 6.68877 56.654 7.20577 56.3783C7.72711 56.0979 8.12029 55.644 8.3853 55.0166C8.65466 54.3845 8.78935 53.5433 8.78935 52.4929C8.78935 51.4425 8.65466 50.606 8.3853 49.9834C8.11594 49.356 7.71842 48.9045 7.19273 48.6288C6.67139 48.3484 6.0284 48.2082 5.26377 48.2082H3.72581V56.7918Z" fill="#DAC48E"/>
<path d="M26.502 52.5C26.502 54.1065 26.2196 55.4682 25.6548 56.5851C25.09 57.702 24.3254 58.5504 23.3609 59.1302C22.4007 59.7101 21.3233 60 20.1285 60C18.9295 60 17.8498 59.7077 16.8897 59.1231C15.9296 58.5385 15.1671 57.6901 14.6023 56.5779C14.0419 55.461 13.7616 54.1017 13.7616 52.5C13.7616 50.8935 14.0419 49.5318 14.6023 48.4149C15.1671 47.298 15.9296 46.4496 16.8897 45.8698C17.8498 45.2899 18.9295 45 20.1285 45C21.3233 45 22.4007 45.2899 23.3609 45.8698C24.3254 46.4496 25.09 47.298 25.6548 48.4149C26.2196 49.5318 26.502 50.8935 26.502 52.5ZM23.2045 52.5C23.2045 51.5494 23.0806 50.7462 22.833 50.0903C22.5897 49.4344 22.2378 48.9377 21.7773 48.6003C21.3211 48.2628 20.7715 48.0941 20.1285 48.0941C19.4899 48.0941 18.9403 48.2628 18.4798 48.6003C18.0193 48.9377 17.6652 49.4344 17.4176 50.0903C17.1743 50.7462 17.0526 51.5494 17.0526 52.5C17.0526 53.4506 17.1743 54.2538 17.4176 54.9097C17.6652 55.5656 18.0193 56.0623 18.4798 56.3997C18.9403 56.7372 19.4899 56.9059 20.1285 56.9059C20.7715 56.9059 21.3211 56.7372 21.7773 56.3997C22.2378 56.0623 22.5897 55.5656 22.833 54.9097C23.0806 54.2538 23.2045 53.4506 23.2045 52.5Z" fill="#DAC48E"/>
<path d="M40.5 50.4895H37.2416C37.1982 50.1236 37.1091 49.7933 36.9744 49.4986C36.8397 49.2039 36.6616 48.952 36.44 48.7429C36.2185 48.5337 35.9556 48.3745 35.6515 48.2652C35.3517 48.1511 35.0194 48.0941 34.6544 48.0941C34.0071 48.0941 33.4488 48.2676 32.9796 48.6145C32.5148 48.9615 32.1563 49.4629 31.9044 50.1188C31.6567 50.7747 31.5329 51.5684 31.5329 52.5C31.5329 53.4696 31.6589 54.2823 31.9109 54.9382C32.1672 55.5894 32.5256 56.0813 32.9862 56.414C33.451 56.7419 34.0006 56.9059 34.6349 56.9059C34.9911 56.9059 35.3148 56.856 35.6059 56.7562C35.9013 56.6564 36.1598 56.5114 36.3814 56.3213C36.6073 56.1264 36.792 55.8912 36.9353 55.6155C37.083 55.3351 37.1851 55.019 37.2416 54.6673L40.5 54.6887C40.4435 55.3351 40.2719 55.972 39.9852 56.5993C39.7028 57.2267 39.3139 57.7994 38.8187 58.3175C38.3234 58.8308 37.7195 59.2395 37.007 59.5437C36.2989 59.8479 35.4864 60 34.5697 60C33.362 60 32.2802 59.7101 31.3244 59.1302C30.3729 58.5456 29.6213 57.6949 29.0696 56.5779C28.5178 55.461 28.2419 54.1017 28.2419 52.5C28.2419 50.8935 28.5222 49.5318 29.0826 48.4149C29.643 47.298 30.4012 46.4496 31.357 45.8698C32.3128 45.2899 33.3837 45 34.5697 45C35.3778 45 36.1251 45.1236 36.8115 45.3707C37.4979 45.6131 38.1018 45.9696 38.6232 46.4401C39.1445 46.9059 39.5681 47.4786 39.8939 48.1583C40.2198 48.8379 40.4218 49.615 40.5 50.4895Z" fill="#DAC48E"/>
</svg>
