<svg width="60" height="60" viewBox="0 0 60 60" fill="none" xmlns="http://www.w3.org/2000/svg">
<path fill-rule="evenodd" clip-rule="evenodd" d="M56.0001 16.8736V52.4956C56.0001 54.4845 55.2175 56.392 53.8244 57.7984C52.4312 59.2048 50.5417 59.9949 48.5716 59.9949H44.8573V56.2452H48.5716C49.5567 56.2452 50.5014 55.8502 51.198 55.147C51.8945 54.4438 52.2859 53.49 52.2859 52.4956V16.8736H44.8573C43.3797 16.8736 41.9625 16.281 40.9177 15.2262C39.8728 14.1714 39.2859 12.7408 39.2859 11.249V3.74968H18.8573C17.8722 3.74968 16.9274 4.14474 16.2309 4.84794C15.5343 5.55114 15.143 6.50489 15.143 7.49937V41.2465H11.4287V7.49937C11.4287 5.51041 12.2114 3.60292 13.6045 2.19651C14.9976 0.79011 16.8871 0 18.8573 0L39.2859 0L56.0001 16.8736Z" fill="#DAC48E"/>
<path d="M2.5 60V45H8.57483C9.67586 45 10.6261 45.2197 11.4255 45.6592C12.2298 46.0937 12.8497 46.7017 13.2853 47.4829C13.721 48.2593 13.9388 49.1626 13.9388 50.1929C13.9388 51.228 13.7162 52.1338 13.271 52.9102C12.8306 53.6816 12.2011 54.2798 11.3825 54.7046C10.5639 55.1294 9.59209 55.3418 8.46712 55.3418H4.71882V52.4854H7.8065C8.34266 52.4854 8.79025 52.3901 9.14928 52.1997C9.5131 52.0093 9.78836 51.7432 9.97506 51.4014C10.1618 51.0547 10.2551 50.6519 10.2551 50.1929C10.2551 49.729 10.1618 49.3286 9.97506 48.9917C9.78836 48.6499 9.5131 48.3862 9.14928 48.2007C8.78546 48.0151 8.33787 47.9224 7.8065 47.9224H6.05442V60H2.5Z" fill="#DAC48E"/>
<path d="M21.1266 60H15.6909V45H21.1194C22.6178 45 23.9079 45.3003 24.9898 45.9009C26.0765 46.4966 26.9142 47.356 27.503 48.479C28.0918 49.5972 28.3862 50.9351 28.3862 52.4927C28.3862 54.0552 28.0918 55.3979 27.503 56.521C26.919 57.644 26.0836 58.5059 24.997 59.1064C23.9103 59.7021 22.6202 60 21.1266 60ZM19.2453 56.9092H20.9902C21.8136 56.9092 22.5101 56.7676 23.0797 56.4844C23.6542 56.1963 24.0874 55.73 24.3794 55.0854C24.6762 54.436 24.8246 53.5718 24.8246 52.4927C24.8246 51.4136 24.6762 50.5542 24.3794 49.9146C24.0826 49.27 23.6446 48.8062 23.0654 48.5229C22.4909 48.2349 21.7824 48.0908 20.9399 48.0908H19.2453V56.9092Z" fill="#DAC48E"/>
<path d="M30.4615 60V45H40.5V47.9443H34.0159V51.0205H39.8609V53.9722H34.0159V60H30.4615Z" fill="#DAC48E"/>
</svg>
