<svg width="60" height="60" viewBox="0 0 60 60" fill="none" xmlns="http://www.w3.org/2000/svg">
<path fill-rule="evenodd" clip-rule="evenodd" d="M56.0001 16.8736V52.4956C56.0001 54.4845 55.2175 56.392 53.8244 57.7984C52.4312 59.2048 50.5417 59.9949 48.5716 59.9949H44.8573V56.2452H48.5716C49.5567 56.2452 50.5014 55.8502 51.198 55.147C51.8945 54.4438 52.2859 53.49 52.2859 52.4956V16.8736H44.8573C43.3797 16.8736 41.9625 16.281 40.9177 15.2262C39.8728 14.1714 39.2859 12.7408 39.2859 11.249V3.74968H18.8573C17.8722 3.74968 16.9274 4.14474 16.2309 4.84794C15.5343 5.55114 15.143 6.50489 15.143 7.49937V41.2465H11.4287V7.49937C11.4287 5.51041 12.2114 3.60292 13.6045 2.19651C14.9976 0.79011 16.8871 0 18.8573 0L39.2859 0L56.0001 16.8736Z" fill="#DAC48E"/>
<path d="M7.56618 45.1998L10.2156 49.8168H10.3289L13.0066 45.1998H16.9311L12.5533 52.5071L17.0728 59.8145H13.0491L10.3289 55.1475H10.2156L7.49534 59.8145H3.5L7.9983 52.5071L3.61334 45.1998H7.56618Z" fill="#DAC48E"/>
<path d="M18.7446 59.8145V45.1998H22.2512V56.9458H28.2867V59.8145H18.7446Z" fill="#DAC48E"/>
<path d="M37.9439 49.5814C37.8966 49.058 37.6865 48.6513 37.3134 48.3611C36.945 48.0661 36.4185 47.9186 35.7337 47.9186C35.2803 47.9186 34.9025 47.9781 34.6002 48.097C34.298 48.216 34.0713 48.3801 33.9202 48.5894C33.7691 48.794 33.6911 49.0295 33.6864 49.2959C33.677 49.5147 33.7195 49.7074 33.8139 49.8739C33.9131 50.0404 34.0548 50.1879 34.239 50.3164C34.4279 50.4401 34.6546 50.5495 34.919 50.6446C35.1835 50.7398 35.481 50.823 35.8116 50.8944L37.0584 51.1798C37.7762 51.3368 38.409 51.5461 38.9569 51.8078C39.5094 52.0695 39.9722 52.3811 40.3453 52.7426C40.7231 53.1042 41.0088 53.5205 41.2025 53.9914C41.3961 54.4624 41.4953 54.9905 41.5 55.5756C41.4953 56.4986 41.2639 57.2907 40.8058 57.952C40.3477 58.6132 39.6889 59.1199 38.8294 59.4719C37.9746 59.824 36.9427 60 35.7337 60C34.52 60 33.4621 59.8168 32.5601 59.4505C31.6581 59.0842 30.9567 58.5276 30.4561 57.7807C29.9555 57.0338 29.6982 56.0894 29.684 54.9477H33.0418C33.0701 55.4186 33.1953 55.8111 33.4172 56.1251C33.6392 56.4391 33.9438 56.677 34.3311 56.8387C34.723 57.0005 35.1764 57.0814 35.6912 57.0814C36.1634 57.0814 36.5649 57.0171 36.8954 56.8887C37.2307 56.7602 37.4881 56.5818 37.6676 56.3535C37.847 56.1251 37.9391 55.8635 37.9439 55.5685C37.9391 55.2926 37.8541 55.0571 37.6888 54.862C37.5235 54.6622 37.2685 54.491 36.9238 54.3482C36.5837 54.2008 36.1493 54.0652 35.6203 53.9415L34.1044 53.5847C32.8482 53.2945 31.8588 52.8259 31.1362 52.1789C30.4136 51.5271 30.0547 50.647 30.0594 49.5385C30.0547 48.6346 30.2956 47.8425 30.782 47.1622C31.2684 46.4819 31.9414 45.9515 32.8009 45.5709C33.6604 45.1903 34.6404 45 35.7408 45C36.8647 45 37.84 45.1927 38.6664 45.578C39.4976 45.9586 40.1422 46.4938 40.6003 47.1836C41.0584 47.8735 41.2922 48.6727 41.3016 49.5814H37.9439Z" fill="#DAC48E"/>
</svg>
