<svg width="60" height="60" viewBox="0 0 60 60" fill="none" xmlns="http://www.w3.org/2000/svg">
<path fill-rule="evenodd" clip-rule="evenodd" d="M56.0001 16.8736V52.4956C56.0001 54.4845 55.2175 56.392 53.8244 57.7984C52.4312 59.2048 50.5417 59.9949 48.5716 59.9949H44.8573V56.2452H48.5716C49.5567 56.2452 50.5014 55.8502 51.198 55.147C51.8945 54.4438 52.2859 53.49 52.2859 52.4956V16.8736H44.8573C43.3797 16.8736 41.9625 16.281 40.9177 15.2262C39.8728 14.1714 39.2859 12.7408 39.2859 11.249V3.74968H18.8573C17.8722 3.74968 16.9274 4.14474 16.2309 4.84794C15.5343 5.55114 15.143 6.50489 15.143 7.49937V41.2465H11.4287V7.49937C11.4287 5.51041 12.2114 3.60292 13.6045 2.19651C14.9976 0.79011 16.8871 0 18.8573 0L39.2859 0L56.0001 16.8736Z" fill="#DAC48E"/>
<path d="M0.5 59.8004V45.1996H6.37678C7.44192 45.1996 8.36118 45.4135 9.13457 45.8413C9.91258 46.2643 10.5123 46.856 10.9337 47.6164C11.3551 48.3721 11.5659 49.2514 11.5659 50.2543C11.5659 51.2619 11.3505 52.1435 10.9198 52.8992C10.4938 53.6502 9.8848 54.2324 9.09289 54.6459C8.30098 55.0594 7.36088 55.2662 6.27259 55.2662H2.64649V52.4857H5.6335C6.15218 52.4857 6.58518 52.3931 6.93251 52.2077C7.28447 52.0223 7.55075 51.7633 7.73136 51.4306C7.91197 51.0932 8.00228 50.701 8.00228 50.2543C8.00228 49.8028 7.91197 49.413 7.73136 49.0851C7.55075 48.7524 7.28447 48.4957 6.93251 48.3151C6.58055 48.1345 6.14755 48.0442 5.6335 48.0442H3.93854V59.8004H0.5Z" fill="#DAC48E"/>
<path d="M25.3687 45.1996V59.8004H22.4511L16.7897 51.3736H16.6994V59.8004H13.2608V45.1996H16.2201L21.819 53.6122H21.9371V45.1996H25.3687Z" fill="#DAC48E"/>
<path d="M36.867 49.9691C36.7882 49.6697 36.6724 49.4059 36.5196 49.1778C36.3668 48.9449 36.1792 48.7476 35.957 48.586C35.7347 48.4244 35.48 48.3032 35.1928 48.2224C34.9057 48.1369 34.5908 48.0941 34.2481 48.0941C33.5581 48.0941 32.9607 48.2652 32.4559 48.6074C31.9557 48.9496 31.569 49.4487 31.2958 50.1046C31.0226 50.7557 30.886 51.5471 30.886 52.4786C30.886 53.4149 31.018 54.2134 31.2819 54.8741C31.5459 55.5347 31.9279 56.0385 32.4281 56.3855C32.9283 56.7324 33.5349 56.9059 34.2481 56.9059C34.8779 56.9059 35.4105 56.8013 35.8458 56.5922C36.2858 56.3783 36.6192 56.0765 36.8461 55.6868C37.073 55.2971 37.1865 54.8384 37.1865 54.3108L37.8256 54.3893H34.3662V51.8156H40.5V53.7476C40.5 55.0547 40.2291 56.174 39.6873 57.1055C39.1501 58.0371 38.4091 58.7524 37.4644 59.2514C36.5243 59.7505 35.4429 60 34.2203 60C32.8634 60 31.6709 59.6982 30.6428 59.0946C29.6147 58.491 28.8136 57.6307 28.2393 56.5138C27.6651 55.3921 27.378 54.0613 27.378 52.5214C27.378 51.3237 27.5516 50.2614 27.8989 49.3346C28.2463 48.403 28.7302 47.6141 29.3508 46.9677C29.976 46.3213 30.6984 45.8317 31.5181 45.499C32.3424 45.1663 33.2293 45 34.1786 45C35.003 45 35.7694 45.1212 36.4779 45.3636C37.1911 45.606 37.8209 45.9482 38.3674 46.3902C38.9185 46.8322 39.3654 47.3574 39.7081 47.9658C40.0508 48.5741 40.2638 49.2419 40.3472 49.9691H36.867Z" fill="#DAC48E"/>
</svg>
