<svg width="11" height="11" viewBox="0 0 11 11" fill="none" xmlns="http://www.w3.org/2000/svg">
<path d="M3.4375 1.33449C3.25516 1.33449 3.0803 1.4047 2.95136 1.52968C2.82243 1.65466 2.75 1.82416 2.75 2.00091C2.75 2.17766 2.82243 2.34717 2.95136 2.47215C3.0803 2.59712 3.25516 2.66734 3.4375 2.66734C3.61984 2.66734 3.7947 2.59712 3.92364 2.47215C4.05257 2.34717 4.125 2.17766 4.125 2.00091C4.125 1.82416 4.05257 1.65466 3.92364 1.52968C3.7947 1.4047 3.61984 1.33449 3.4375 1.33449ZM1.49187 1.33448C1.63391 0.944271 1.89732 0.606371 2.24579 0.367361C2.59425 0.128351 3.01062 5.26394e-07 3.4375 6.01032e-07C3.86438 6.75669e-07 4.28075 0.128351 4.62921 0.367361C4.97768 0.606371 5.24109 0.944271 5.38312 1.33449L10.3125 1.33449C10.4948 1.33449 10.6697 1.4047 10.7986 1.52968C10.9276 1.65466 11 1.82417 11 2.00091C11 2.17766 10.9276 2.34717 10.7986 2.47215C10.6697 2.59713 10.4948 2.66734 10.3125 2.66734L5.38312 2.66734C5.24109 3.05755 4.97768 3.39545 4.62921 3.63446C4.28075 3.87347 3.86438 4.00182 3.4375 4.00182C3.01062 4.00182 2.59425 3.87347 2.24579 3.63446C1.89732 3.39545 1.63391 3.05755 1.49187 2.66734L0.6875 2.66734C0.505163 2.66734 0.330295 2.59712 0.201364 2.47214C0.0724327 2.34717 -1.88446e-07 2.17766 -1.57543e-07 2.00091C-1.2664e-07 1.82416 0.0724329 1.65466 0.201364 1.52968C0.330295 1.4047 0.505164 1.33448 0.6875 1.33448L1.49187 1.33448ZM7.5625 4.8344C7.38016 4.8344 7.20529 4.90461 7.07636 5.02959C6.94743 5.15457 6.875 5.32408 6.875 5.50083C6.875 5.67758 6.94743 5.84708 7.07636 5.97206C7.20529 6.09704 7.38016 6.16725 7.5625 6.16725C7.74484 6.16725 7.9197 6.09704 8.04863 5.97206C8.17757 5.84708 8.25 5.67758 8.25 5.50083C8.25 5.32408 8.17757 5.15457 8.04863 5.02959C7.9197 4.90461 7.74484 4.8344 7.5625 4.8344ZM5.61687 4.8344C5.75891 4.44419 6.02232 4.10629 6.37079 3.86728C6.71925 3.62827 7.13562 3.49992 7.5625 3.49992C7.98938 3.49992 8.40575 3.62827 8.75421 3.86728C9.10268 4.10629 9.36609 4.44419 9.50812 4.8344L10.3125 4.8344C10.4948 4.8344 10.6697 4.90462 10.7986 5.02959C10.9276 5.15457 11 5.32408 11 5.50083C11 5.67758 10.9276 5.84708 10.7986 5.97206C10.6697 6.09704 10.4948 6.16725 10.3125 6.16725L9.50812 6.16725C9.36608 6.55747 9.10268 6.89537 8.75421 7.13438C8.40575 7.37339 7.98938 7.50174 7.5625 7.50174C7.13562 7.50174 6.71925 7.37339 6.37079 7.13438C6.02232 6.89537 5.75891 6.55747 5.61687 6.16725L0.687499 6.16725C0.505163 6.16725 0.330294 6.09704 0.201363 5.97206C0.0724319 5.84708 -9.92699e-07 5.67757 -9.61795e-07 5.50083C-9.30892e-07 5.32408 0.0724321 5.15457 0.201363 5.02959C0.330295 4.90461 0.505163 4.8344 0.687499 4.8344L5.61687 4.8344ZM3.4375 8.33266C3.25516 8.33266 3.0803 8.40287 2.95136 8.52785C2.82243 8.65283 2.75 8.82234 2.75 8.99909C2.75 9.17584 2.82243 9.34534 2.95136 9.47032C3.0803 9.5953 3.25516 9.66551 3.4375 9.66551C3.61984 9.66551 3.7947 9.5953 3.92364 9.47032C4.05257 9.34534 4.125 9.17584 4.125 8.99909C4.125 8.82234 4.05257 8.65283 3.92364 8.52785C3.7947 8.40287 3.61984 8.33266 3.4375 8.33266ZM1.49188 8.33266C1.63391 7.94245 1.89732 7.60455 2.24579 7.36554C2.59425 7.12653 3.01062 6.99818 3.4375 6.99818C3.86438 6.99818 4.28075 7.12653 4.62921 7.36554C4.97768 7.60455 5.24109 7.94245 5.38312 8.33266L10.3125 8.33266C10.4948 8.33266 10.6697 8.40287 10.7986 8.52785C10.9276 8.65283 11 8.82234 11 8.99909C11 9.17584 10.9276 9.34534 10.7986 9.47032C10.6697 9.5953 10.4948 9.66551 10.3125 9.66551L5.38312 9.66551C5.24109 10.0557 4.97768 10.3936 4.62921 10.6326C4.28075 10.8716 3.86438 11 3.4375 11C3.01062 11 2.59425 10.8716 2.24579 10.6326C1.89732 10.3936 1.63391 10.0557 1.49188 9.66551L0.6875 9.66551C0.505164 9.66551 0.330296 9.5953 0.201364 9.47032C0.0724331 9.34534 1.26595e-07 9.17583 1.57499e-07 8.99909C1.88402e-07 8.82234 0.0724332 8.65283 0.201364 8.52785C0.330296 8.40287 0.505164 8.33266 0.6875 8.33266L1.49188 8.33266Z" fill="currentColor"/>
</svg>
