<svg width="17" height="16" viewBox="0 0 17 16" fill="none" xmlns="http://www.w3.org/2000/svg">
<path d="M1.48089 7.097C1.48089 7.097 8.55735 4.02379 11.0116 2.94164C11.9524 2.50875 15.1429 1.1236 15.1429 1.1236C15.1429 1.1236 16.6155 0.517582 16.4927 1.98937C16.4519 2.59538 16.1245 4.71631 15.7974 7.01049C15.3066 10.2568 14.7748 13.8063 14.7748 13.8063C14.7748 13.8063 14.693 14.8018 13.9976 14.9751C13.3022 15.1482 12.157 14.3692 11.9525 14.1959C11.7889 14.0662 8.88457 12.1182 7.82118 11.166C7.53483 10.9063 7.20762 10.3868 7.86205 9.78093C9.33463 8.35252 11.0936 6.57785 12.157 5.45244C12.6478 4.93293 13.1386 3.72102 11.0934 5.19269C8.18927 7.31362 5.32596 9.30479 5.32596 9.30479C5.32596 9.30479 4.67141 9.73768 3.44441 9.34804C2.21729 8.95853 0.785584 8.43902 0.785584 8.43902C0.785584 8.43902 -0.196176 7.78952 1.48089 7.097Z" fill="#39CAF8"/>
</svg>
