<svg width="17" height="16" viewBox="0 0 17 16" fill="none" xmlns="http://www.w3.org/2000/svg">
<path d="M8.502 0H8.498C4.087 0 0.5 3.588 0.5 8C0.5 9.75 1.064 11.372 2.023 12.689L1.026 15.661L4.101 14.678C5.366 15.516 6.875 16 8.502 16C12.913 16 16.5 12.411 16.5 8C16.5 3.589 12.913 0 8.502 0ZM13.157 11.297C12.964 11.842 12.198 12.294 11.587 12.426C11.169 12.515 10.623 12.586 8.785 11.824C6.434 10.85 4.92 8.461 4.802 8.306C4.689 8.151 3.852 7.041 3.852 5.893C3.852 4.745 4.435 4.186 4.67 3.946C4.863 3.749 5.182 3.659 5.488 3.659C5.587 3.659 5.676 3.664 5.756 3.668C5.991 3.678 6.109 3.692 6.264 4.063C6.457 4.528 6.927 5.676 6.983 5.794C7.04 5.912 7.097 6.072 7.017 6.227C6.942 6.387 6.876 6.458 6.758 6.594C6.64 6.73 6.528 6.834 6.41 6.98C6.302 7.107 6.18 7.243 6.316 7.478C6.452 7.708 6.922 8.475 7.614 9.091C8.507 9.886 9.231 10.14 9.49 10.248C9.683 10.328 9.913 10.309 10.054 10.159C10.233 9.966 10.454 9.646 10.679 9.331C10.839 9.105 11.041 9.077 11.253 9.157C11.469 9.232 12.612 9.797 12.847 9.914C13.082 10.032 13.237 10.088 13.294 10.187C13.35 10.286 13.35 10.751 13.157 11.297Z" fill="#4CCE37"/>
</svg>
