<?xml version="1.0" encoding="utf-8"?><svg viewBox="0 0 150 130" xmlns="http://www.w3.org/2000/svg" xmlns:xlink="http://www.w3.org/1999/xlink"><style>:root>svg{display:none}:root>svg:target{display:block}</style><svg fill="none" viewBox="0 0 150 130" id="almond" xmlns="http://www.w3.org/2000/svg"><g clip-path="url(#aa)"><path d="m122.139 32.144-1.646 3.37c-5.576-2.725-7.894-9.471-5.169-15.047l1.646-3.37c5.576 2.725 7.894 9.471 5.169 15.047Z" fill="#659922"/><path d="m135.539 30.345 6.739 3.292c-2.725 5.576-9.471 7.894-15.047 5.17l-6.738-3.293c2.724-5.577 9.47-7.894 15.046-5.17ZM85.861 8.158s18.519 11.344 22.419 28.86a49.708 49.708 0 0 0-17.656 8.714c-5.92 4.557-11.772 11.152-16.515 20.646-7.64-8.24-11.608-19.466-9.052-27.942.244-.841.555-1.649.934-2.424C71.753 24.22 79.276 21.635 85.86 8.158Z" fill="#659922"/><path d="M120.493 35.514s20.331 22.455 3.868 56.148c-16.463 33.693-46.672 31.454-46.672 31.454s-10.208-11.27-10.294-29.843c-.044-7.639 1.627-16.484 6.426-26.306l.288-.59c4.743-9.493 10.595-16.088 16.515-20.645a49.71 49.71 0 0 1 17.656-8.715c7.136-1.876 12.213-1.503 12.213-1.503Z" fill="#C29C42"/><path d="M67.395 93.273a74.793 74.793 0 0 1-6.132 2.43C25.459 107.987 5.49 84.832 5.49 84.832s1.523-30.537 37.318-42.848c8.276-2.843 15.705-3.783 22.231-3.557l.017.008c-2.556 8.476 1.413 19.701 9.052 27.942l-.288.59c-4.799 9.82-6.47 18.666-6.426 26.305Z" fill="#C29C42"/><path d="m126.786 38.589.445.217c6.501 3.177 14.377.472 17.555-6.03l.823-1.685-8.423-4.116c-3.693-1.804-7.826-1.708-11.292-.1.546-5.32-2.2-10.666-7.278-13.147l-1.685-.823-2.469 5.054c-2.349 4.808-1.475 10.36 1.764 14.216a49.595 49.595 0 0 0-5.744.964c-4.793-17.056-22.06-27.8-22.819-28.264l-1.758-1.078L85 5.65c-3.287 6.727-6.85 10.683-10.294 14.507-3.283 3.643-6.677 7.412-9.577 13.347-.213.437-.393.894-.57 1.35-6.963-.064-14.197 1.162-21.534 3.681C6.447 51.101 4.46 82.735 4.444 83.055l-.036.748.49.568c.097.114 4.808 5.437 13.589 9.728 9.862 4.818 24.856 8.33 44.206 1.682a74.833 74.833 0 0 0 3.806-1.435c1.054 17.469 10.482 28.185 10.624 28.343l.502.556.747.056c.315.022 31.671 1.933 48.496-32.501 11.851-24.254 5.05-43.097-.082-52.211Zm8.753-8.245 4.884 2.387c-2.658 3.457-7.477 4.694-11.546 2.706l-4.883-2.387c2.657-3.457 7.477-4.694 11.545-2.706Zm-17.708-10.739.74-1.514c3.458 2.657 4.694 7.477 2.706 11.545l-.74 1.515c-3.457-2.658-4.694-7.477-2.706-11.546Zm-40.34 3.064c3.286-3.648 6.67-7.407 9.9-13.457 4.355 3.092 15.859 12.269 19.444 24.9a52.079 52.079 0 0 0-13.64 6.454 163.874 163.874 0 0 0-.243-4.104l7.192-10.593-3.103-2.107-4.61 6.792c-.894-8.613-2.124-15.124-2.144-15.22l-3.683.704c.021.114 1.853 9.816 2.638 21.15-4.46-5.18-10.167-9.286-10.486-9.513l-2.178 3.053c.093.066 8.883 6.398 12.645 12.763-5.23 4.235-10.342 10.007-14.668 17.895-6.902-8.566-9.465-19.26-6.057-26.235 2.67-5.464 5.742-8.873 8.994-12.483ZM61.475 92.237c-31 10.648-49.886-6.403-53.21-9.761.545-4.694 4.893-29.716 35.98-40.395 6.587-2.262 13.064-3.427 19.3-3.487-1.364 8.181 2.022 18.238 9.167 26.408-4.467 9.33-6.185 17.852-6.307 25.316a71.127 71.127 0 0 1-4.93 1.919Zm17.947 27.355c-2.893-3.655-17.389-24.227-3.092-53.486 14.428-29.529 39.284-30.531 44.078-30.438 2.893 3.654 17.388 24.227 3.092 53.486-14.428 29.528-39.284 30.531-44.078 30.438Z" fill="#000"/><path d="M120.506 41.325c-.445-.934-1.577-1.26-2.481-.758-.906.502-1.252 1.643-.815 2.582 2.228 4.8 7.849 19.082 2.744 31.751-.387.961-.008 2.083.922 2.538.93.454 2.059.07 2.456-.887 5.972-14.405-.396-30.132-2.826-35.227ZM19.13 70.155c-.444.934.017 2.018.976 2.404.961.386 2.064-.065 2.519-.996 2.321-4.755 9.863-18.123 22.916-22.148.99-.305 1.622-1.306 1.388-2.315-.234-1.009-1.244-1.643-2.236-1.347-14.947 4.446-23.14 19.303-25.563 24.402Zm62.68 1.84a1.026 1.026 0 0 0-.464-1.351l-1.573-.768a.994.994 0 0 0-1.333.473c-9.952 21.402-.391 38.927 2.113 42.917.294.468.91.567 1.362.247l1.427-1.014c.45-.319.566-.941.28-1.413-2.281-3.774-10.702-19.864-1.811-39.091Zm18.967-22.2c.976-.341 1.605-1.362 1.378-2.372-.227-1.011-1.232-1.639-2.216-1.314-3.431 1.129-10.895 4.308-15.231 11.57-.531.889-.14 2.018.79 2.473.93.454 2.046.063 2.593-.816 3.584-5.752 9.677-8.488 12.686-9.54Zm7.565 31.945c-.983.336-1.536 1.417-1.366 2.442.377 2.27.639 6.398-1.107 10.966-.37.967.006 2.09.937 2.544.93.455 2.06.07 2.445-.89 2.364-5.918 1.849-11.2 1.319-13.86-.202-1.014-1.25-1.536-2.228-1.202Zm-22.614 3.567c.93.454 2.047.064 2.583-.823 1.929-3.19 4.4-5.417 5.966-6.63.823-.637 1.109-1.797.583-2.694-.522-.895-1.662-1.188-2.494-.57-1.86 1.38-5.024 4.122-7.435 8.24-.524.894-.133 2.022.797 2.477Zm21.997-23.757c-.201.516-.001 1.114.496 1.357l1.572.768c.496.242 1.1.035 1.312-.475 2.372-5.71.13-9.765-1.076-11.377-.332-.443-.962-.442-1.35-.047l-1.249 1.27c-.377.385-.382 1-.096 1.457.728 1.163 1.73 3.607.391 7.048Zm-18.177 41.361c-.94.438-1.457 1.52-1.12 2.501.337.978 1.396 1.491 2.34 1.067 2.225-1.001 6.066-3.076 8.372-6.282.605-.84.211-1.974-.72-2.428-.93-.455-2.049-.056-2.706.743-1.718 2.09-4.411 3.582-6.166 4.399ZM44.473 88.168c-.55.035-.98.5-.956 1.052l.074 1.749c.023.552.49.98 1.04.947a52.544 52.544 0 0 0 1.884-.15.985.985 0 0 0 .879-1.1l-.203-1.738a1.016 1.016 0 0 0-1.11-.888c-.536.051-1.073.094-1.608.128Zm14.565-3.025c-.451.155-.9.304-1.347.448l1.146 3.57c.47-.153.945-.309 1.418-.472a62.41 62.41 0 0 0 2.216-.804l-1.342-3.502c-.682.261-1.377.516-2.09.76Zm-7.405 2.05a1.015 1.015 0 0 0-.797 1.178l.326 1.719c.102.543.626.9 1.167.788a59.794 59.794 0 0 0 1.825-.407.987.987 0 0 0 .72-1.21l-.434-1.694a1.013 1.013 0 0 0-1.22-.729c-.53.127-1.06.245-1.587.355Zm8.342-35.355a1.02 1.02 0 0 0 .904-1.098l-.159-1.743a.983.983 0 0 0-1.086-.894c-3.339.38-6.8 1.15-10.313 2.294a.988.988 0 0 0-.623 1.263l.568 1.654c.18.522.748.8 1.274.629 3.224-1.046 6.39-1.752 9.435-2.105ZM23.022 78.833c-1.083-.588-2.453-.27-3.107.774-.666 1.061-.338 2.467.76 3.07a49.665 49.665 0 0 0 17.267 5.672c1.278.172 2.398-.813 2.458-2.1.055-1.215-.858-2.25-2.063-2.415a44.86 44.86 0 0 1-15.315-5.001Zm43.843-10.802c.665-.98.217-2.27-.846-2.79-1.064-.519-2.345-.072-3.044.883-2.546 3.477-7.532 7.106-12.51 5.903-1.007-.243-2.129.117-2.584 1.047-.454.93-.07 2.07.914 2.39 7.27 2.373 14.58-2.287 18.07-7.433Zm-32.18-1.816c-.58.858-.185 1.99.745 2.445.93.455 2.044.056 2.667-.771 2.3-3.056 6.12-4.666 8.373-5.392.988-.318 1.657-1.33 1.46-2.348-.194-1.01-1.17-1.665-2.155-1.368-2.771.833-8.05 2.933-11.09 7.434Z" fill="#000"/></g><defs><clipPath id="aa"><path fill="#fff" d="M0 0h150v130H0z"/></clipPath></defs></svg><svg fill="none" viewBox="0 0 17 16" id="ar-left" xmlns="http://www.w3.org/2000/svg"><path fill-rule="evenodd" clip-rule="evenodd" d="M16.5 8c0 .445-.335.805-.747.805H1.247C.835 8.805.5 8.445.5 8c0-.445.335-.805.747-.805h14.506c.412 0 .747.36.747.805Z" fill="currentColor"/><path fill-rule="evenodd" clip-rule="evenodd" d="M7.71 14.964a.71.71 0 0 1-1.057 0L.719 8.57a.85.85 0 0 1 0-1.14l5.934-6.394a.71.71 0 0 1 1.057 0 .85.85 0 0 1 0 1.139L2.304 8l5.406 5.825a.85.85 0 0 1 0 1.14Z" fill="currentColor"/></svg><svg fill="none" viewBox="0 0 17 16" id="ar-right" xmlns="http://www.w3.org/2000/svg"><path fill-rule="evenodd" clip-rule="evenodd" d="M.5 8c0 .445.335.805.747.805h14.506c.412 0 .747-.36.747-.805 0-.445-.335-.805-.747-.805H1.247C.835 7.195.5 7.555.5 8Z" fill="currentColor"/><path fill-rule="evenodd" clip-rule="evenodd" d="M9.29 14.964a.71.71 0 0 0 1.057 0l5.934-6.394a.85.85 0 0 0 0-1.14l-5.934-6.394a.71.71 0 0 0-1.057 0 .85.85 0 0 0 0 1.139L14.696 8 9.29 13.825a.85.85 0 0 0 0 1.14Z" fill="currentColor"/></svg><svg fill="none" viewBox="0 0 16 22" id="arrow-up" xmlns="http://www.w3.org/2000/svg"><path d="M9.031.585a1.444 1.444 0 0 0-.477-.303 1.358 1.358 0 0 0-1.097 0c-.178.069-.34.172-.477.303L1.202 6.363a1.45 1.45 0 0 0 2.051 2.051l3.308-3.322v15.297a1.444 1.444 0 1 0 2.889 0V5.092l3.308 3.322a1.45 1.45 0 0 0 2.05-2.051L9.032.585Z" fill="currentColor"/></svg><svg fill="none" viewBox="0 0 17 17" id="back-url" xmlns="http://www.w3.org/2000/svg"><path fill-rule="evenodd" clip-rule="evenodd" d="M16.5 8.5c0 .445-.335.805-.747.805H1.247C.835 9.305.5 8.945.5 8.5c0-.445.335-.805.747-.805h14.506c.412 0 .747.36.747.805Z" fill="currentColor"/><path fill-rule="evenodd" clip-rule="evenodd" d="M7.71 15.464a.71.71 0 0 1-1.057 0L.719 9.07a.85.85 0 0 1 0-1.14l5.934-6.394a.71.71 0 0 1 1.057 0 .85.85 0 0 1 0 1.139L2.304 8.5l5.406 5.825a.85.85 0 0 1 0 1.14Z" fill="currentColor"/></svg><svg fill="none" viewBox="0 0 24 24" id="bracket-gt" xmlns="http://www.w3.org/2000/svg"><path d="M8.4 1.2 6.72 3l8.88 9-8.88 9 1.68 1.8L19.2 12 8.4 1.2Z" fill="currentColor"/></svg><svg fill="none" viewBox="0 0 24 24" id="bracket-lt" xmlns="http://www.w3.org/2000/svg"><path d="m15.6 22.8 1.68-1.8-8.88-9 8.88-9-1.68-1.8L4.8 12l10.8 10.8Z" fill="currentColor"/></svg><svg viewBox="0 0 14 14" id="cross" xmlns="http://www.w3.org/2000/svg"><path fill-rule="evenodd" clip-rule="evenodd" d="m8.414 7 5.293-5.293A.999.999 0 1 0 12.293.293L7 5.586 1.707.293A.999.999 0 1 0 .293 1.707L5.586 7 .293 12.293a.999.999 0 1 0 1.414 1.414L7 8.414l5.293 5.293a.997.997 0 0 0 1.414 0 .999.999 0 0 0 0-1.414L8.414 7Z" fill="currentColor"/></svg><svg viewBox="0 0 200 200" fill="none" id="file" xmlns="http://www.w3.org/2000/svg"><path d="M175 175V56.25L118.75 0H50a25 25 0 0 0-25 25v150a25.003 25.003 0 0 0 25 25h100c6.63 0 12.989-2.634 17.678-7.322A25.004 25.004 0 0 0 175 175ZM118.75 37.5a18.748 18.748 0 0 0 18.75 18.75h25V175a12.501 12.501 0 0 1-12.5 12.5H50A12.5 12.5 0 0 1 37.5 175V25A12.5 12.5 0 0 1 50 12.5h68.75v25Z" fill="#DAC48E"/></svg><svg fill="none" viewBox="0 0 60 60" id="file-doc" xmlns="http://www.w3.org/2000/svg"><path fill-rule="evenodd" clip-rule="evenodd" d="M56 16.874v35.622a7.536 7.536 0 0 1-2.176 5.302 7.393 7.393 0 0 1-5.252 2.197h-3.715v-3.75h3.715c.985 0 1.93-.395 2.626-1.098a3.768 3.768 0 0 0 1.088-2.651V16.874h-7.429a5.545 5.545 0 0 1-3.94-1.648 5.652 5.652 0 0 1-1.631-3.977v-7.5H18.857c-.985 0-1.93.396-2.626 1.099a3.768 3.768 0 0 0-1.088 2.651v33.748h-3.714V7.498c0-1.989.782-3.896 2.175-5.302A7.393 7.393 0 0 1 18.858 0h20.429L56 16.874Z" fill="#DAC48E"/><path d="M5.433 59.8H.5V45.2h4.927c1.36 0 2.53.292 3.512.877.986.58 1.747 1.416 2.281 2.509.534 1.088.802 2.39.802 3.907 0 1.52-.268 2.828-.802 3.921-.53 1.093-1.288 1.932-2.274 2.517-.986.58-2.157.87-3.513.87Zm-1.707-3.008h1.583c.748 0 1.38-.138 1.897-.414.521-.28.914-.734 1.18-1.361.269-.633.403-1.474.403-2.524s-.134-1.887-.404-2.51c-.27-.627-.667-1.078-1.192-1.354-.522-.28-1.165-.42-1.93-.42H3.727v8.583ZM26.502 52.5c0 1.606-.282 2.968-.847 4.085s-1.33 1.965-2.294 2.545c-.96.58-2.038.87-3.233.87-1.198 0-2.278-.292-3.238-.877-.96-.584-1.723-1.433-2.288-2.545-.56-1.117-.84-2.476-.84-4.078 0-1.606.28-2.968.84-4.085.565-1.117 1.328-1.965 2.288-2.545.96-.58 2.04-.87 3.238-.87 1.195 0 2.273.29 3.233.87.964.58 1.729 1.428 2.294 2.545s.847 2.479.847 4.085Zm-3.297 0c0-.95-.124-1.754-.372-2.41-.243-.656-.595-1.152-1.056-1.49-.456-.337-1.006-.506-1.649-.506-.638 0-1.188.169-1.648.506-.46.338-.815.834-1.062 1.49-.244.656-.365 1.46-.365 2.41 0 .95.121 1.754.365 2.41.247.656.601 1.152 1.062 1.49.46.337 1.01.506 1.648.506.643 0 1.193-.169 1.65-.506.46-.338.812-.834 1.055-1.49.248-.656.372-1.46.372-2.41ZM40.5 50.49h-3.258a3.307 3.307 0 0 0-.268-.991 2.394 2.394 0 0 0-.534-.756 2.233 2.233 0 0 0-.788-.478 2.783 2.783 0 0 0-.998-.17c-.647 0-1.205.173-1.674.52-.465.346-.824.848-1.076 1.504-.247.656-.371 1.45-.371 2.381 0 .97.126 1.782.378 2.438.256.651.615 1.143 1.075 1.476.465.328 1.015.492 1.649.492.356 0 .68-.05.97-.15.296-.1.555-.245.776-.435a2.35 2.35 0 0 0 .554-.706c.148-.28.25-.596.307-.948l3.258.022a5.785 5.785 0 0 1-.515 1.91 6.098 6.098 0 0 1-1.166 1.719c-.496.513-1.1.922-1.812 1.226-.708.304-1.52.456-2.437.456-1.208 0-2.29-.29-3.246-.87-.951-.584-1.703-1.435-2.254-2.552-.552-1.117-.828-2.476-.828-4.078 0-1.606.28-2.968.84-4.085.561-1.117 1.32-1.965 2.275-2.545.956-.58 2.027-.87 3.213-.87.808 0 1.555.124 2.242.37a5.315 5.315 0 0 1 3.082 2.788c.326.68.528 1.457.606 2.331Z" fill="#DAC48E"/></svg><svg fill="none" viewBox="0 0 61 60" id="file-jpg" xmlns="http://www.w3.org/2000/svg"><path fill-rule="evenodd" clip-rule="evenodd" d="M56.5 16.874v35.622a7.536 7.536 0 0 1-2.176 5.302 7.393 7.393 0 0 1-5.253 2.197h-3.714v-3.75h3.714c.986 0 1.93-.395 2.627-1.098a3.768 3.768 0 0 0 1.088-2.651V16.874h-7.429a5.545 5.545 0 0 1-3.94-1.648 5.652 5.652 0 0 1-1.631-3.977v-7.5H19.357c-.985 0-1.93.396-2.626 1.099a3.768 3.768 0 0 0-1.088 2.651v33.748h-3.714V7.498c0-1.989.782-3.896 2.175-5.302A7.393 7.393 0 0 1 19.357 0h20.429L56.5 16.874ZM40.38 47.366c.282.575.456 1.19.52 1.845h-2.882a3.016 3.016 0 0 0-.36-.934 2.617 2.617 0 0 0-.632-.712 2.593 2.593 0 0 0-.88-.473 3.682 3.682 0 0 0-1.11-.165c-1.06 0-1.884.378-2.47 1.133-.58.752-.87 1.814-.87 3.187v1.867c0 .878.12 1.646.36 2.306.22.616.612 1.154 1.13 1.549a3.209 3.209 0 0 0 1.927.547 3.685 3.685 0 0 0 1.698-.36 2.5 2.5 0 0 0 1.01-.99c.223-.41.335-.863.338-1.36v-.957h-3.053v-2.212h5.853v2.992a5.91 5.91 0 0 1-.36 2.063 4.88 4.88 0 0 1-1.088 1.717 5.195 5.195 0 0 1-1.839 1.174c-.733.277-1.596.416-2.589.416a7.366 7.366 0 0 1-2.796-.495 5.385 5.385 0 0 1-1.98-1.414 6.016 6.016 0 0 1-1.189-2.175 9.457 9.457 0 0 1-.39-2.793v-1.898c0-1.357.248-2.544.743-3.562a5.564 5.564 0 0 1 2.162-2.373c.95-.57 2.097-.855 3.44-.855.883 0 1.67.125 2.362.375.693.25 1.287.593 1.782 1.03.496.438.884.947 1.167 1.527h-.004ZM4.5 55.443c0 .615.102 1.196.305 1.743.205.55.506 1.038.902 1.463.409.425.913.758 1.512 1.001.609.232 1.313.349 2.113.349 1.56 0 2.779-.431 3.655-1.294.884-.865 1.327-2.121 1.33-3.768V44.719h-2.938v10.293c0 .757-.171 1.34-.513 1.747-.341.407-.864.612-1.567.615a1.843 1.843 0 0 1-.97-.224 1.866 1.866 0 0 1-.716-.698 2.266 2.266 0 0 1-.272-1.013H4.5v.004Zm18.274-10.724H16.84v14.998h2.938v-5.035h2.982c1.065 0 1.971-.215 2.72-.645a4.418 4.418 0 0 0 1.719-1.781c.401-.755.6-1.602.598-2.539 0-.935-.196-1.781-.587-2.538a4.48 4.48 0 0 0-1.708-1.79c-.743-.45-1.65-.673-2.72-.67h-.007Zm2.028 4.998c.014.495-.095.986-.315 1.429a2.128 2.128 0 0 1-.884.9c-.433.215-.911.32-1.393.307h-2.444v-5.272h2.451c.81 0 1.444.227 1.902.682.458.453.683 1.104.683 1.954Z" fill="#DAC48E"/></svg><svg fill="none" viewBox="0 0 60 60" id="file-pdf" xmlns="http://www.w3.org/2000/svg"><path fill-rule="evenodd" clip-rule="evenodd" d="M56 16.874v35.622a7.536 7.536 0 0 1-2.176 5.302 7.393 7.393 0 0 1-5.252 2.197h-3.715v-3.75h3.715c.985 0 1.93-.395 2.626-1.098a3.768 3.768 0 0 0 1.088-2.651V16.874h-7.429a5.545 5.545 0 0 1-3.94-1.648 5.652 5.652 0 0 1-1.631-3.977v-7.5H18.857c-.985 0-1.93.396-2.626 1.099a3.768 3.768 0 0 0-1.088 2.651v33.748h-3.714V7.498c0-1.989.782-3.896 2.175-5.302A7.393 7.393 0 0 1 18.858 0h20.429L56 16.874Z" fill="#DAC48E"/><path d="M2.5 60V45h6.075c1.1 0 2.051.22 2.85.66a4.567 4.567 0 0 1 1.86 1.823c.436.776.654 1.68.654 2.71 0 1.035-.223 1.94-.668 2.717a4.516 4.516 0 0 1-1.889 1.795c-.818.424-1.79.637-2.915.637H4.72v-2.857h3.087c.537 0 .984-.095 1.343-.285.364-.19.64-.457.826-.799.187-.346.28-.75.28-1.208 0-.464-.093-.864-.28-1.201a1.895 1.895 0 0 0-.826-.791c-.364-.186-.811-.279-1.342-.279H6.053V60H2.5Zm18.627 0H15.69V45h5.428c1.499 0 2.789.3 3.87.9a6.099 6.099 0 0 1 2.514 2.579c.589 1.118.883 2.456.883 4.014 0 1.562-.294 2.905-.883 4.028a6.1 6.1 0 0 1-2.506 2.585c-1.087.596-2.377.894-3.87.894Zm-1.882-3.09h1.745c.824 0 1.52-.142 2.09-.426.574-.288 1.007-.754 1.3-1.399.296-.649.445-1.513.445-2.592 0-1.08-.149-1.939-.446-2.578-.296-.645-.734-1.109-1.314-1.392-.574-.288-1.283-.432-2.125-.432h-1.695v8.818ZM30.462 60V45H40.5v2.944h-6.484v3.076h5.845v2.952h-5.845V60h-3.554Z" fill="#DAC48E"/></svg><svg fill="none" viewBox="0 0 60 60" id="file-png" xmlns="http://www.w3.org/2000/svg"><path fill-rule="evenodd" clip-rule="evenodd" d="M56 16.874v35.622a7.536 7.536 0 0 1-2.176 5.302 7.393 7.393 0 0 1-5.252 2.197h-3.715v-3.75h3.715c.985 0 1.93-.395 2.626-1.098a3.768 3.768 0 0 0 1.088-2.651V16.874h-7.429a5.545 5.545 0 0 1-3.94-1.648 5.652 5.652 0 0 1-1.631-3.977v-7.5H18.857c-.985 0-1.93.396-2.626 1.099a3.768 3.768 0 0 0-1.088 2.651v33.748h-3.714V7.498c0-1.989.782-3.896 2.175-5.302A7.393 7.393 0 0 1 18.858 0h20.429L56 16.874Z" fill="#DAC48E"/><path d="M.5 59.8V45.2h5.877c1.065 0 1.984.213 2.758.641a4.432 4.432 0 0 1 1.799 1.775c.421.756.632 1.635.632 2.638 0 1.008-.216 1.89-.646 2.645a4.38 4.38 0 0 1-1.827 1.747c-.792.413-1.732.62-2.82.62H2.646v-2.78h2.987c.52 0 .952-.093 1.3-.278.351-.186.618-.445.798-.777.181-.338.271-.73.271-1.177 0-.451-.09-.841-.27-1.169a1.839 1.839 0 0 0-.8-.77c-.351-.18-.784-.27-1.299-.27H3.94V59.8H.5Zm24.869-14.6v14.6H22.45l-5.661-8.426h-.09V59.8h-3.44V45.2h2.96l5.599 8.412h.118V45.2h3.432Zm11.498 4.77a2.598 2.598 0 0 0-.347-.792 2.254 2.254 0 0 0-.563-.592 2.385 2.385 0 0 0-.764-.364 3.3 3.3 0 0 0-.945-.128c-.69 0-1.287.171-1.792.513-.5.343-.887.842-1.16 1.498-.273.65-.41 1.442-.41 2.374 0 .936.132 1.734.396 2.395.264.66.646 1.164 1.146 1.511.5.347 1.107.52 1.82.52.63 0 1.163-.104 1.598-.313a2.27 2.27 0 0 0 1-.905c.227-.39.34-.849.34-1.376l.64.078h-3.46v-2.573H40.5v1.932c0 1.307-.27 2.426-.813 3.358a5.466 5.466 0 0 1-2.223 2.145c-.94.5-2.021.749-3.244.749-1.357 0-2.55-.302-3.577-.905-1.028-.604-1.83-1.464-2.404-2.581-.574-1.122-.861-2.453-.861-3.993 0-1.197.174-2.26.52-3.186.348-.932.832-1.72 1.453-2.367a6.264 6.264 0 0 1 2.167-1.469 7.041 7.041 0 0 1 2.66-.499c.825 0 1.591.121 2.3.364a6.091 6.091 0 0 1 1.89 1.026c.55.442.997.967 1.34 1.576.343.608.556 1.276.64 2.003h-3.481Z" fill="#DAC48E"/></svg><svg fill="none" viewBox="0 0 60 60" id="file-xls" xmlns="http://www.w3.org/2000/svg"><path fill-rule="evenodd" clip-rule="evenodd" d="M56 16.874v35.622a7.536 7.536 0 0 1-2.176 5.302 7.393 7.393 0 0 1-5.252 2.197h-3.715v-3.75h3.715c.985 0 1.93-.395 2.626-1.098a3.768 3.768 0 0 0 1.088-2.651V16.874h-7.429a5.545 5.545 0 0 1-3.94-1.648 5.652 5.652 0 0 1-1.631-3.977v-7.5H18.857c-.985 0-1.93.396-2.626 1.099a3.768 3.768 0 0 0-1.088 2.651v33.748h-3.714V7.498c0-1.989.782-3.896 2.175-5.302A7.393 7.393 0 0 1 18.858 0h20.429L56 16.874Z" fill="#DAC48E"/><path d="m7.566 45.2 2.65 4.617h.113l2.678-4.617h3.924l-4.378 7.307 4.52 7.308h-4.024l-2.72-4.667h-.113l-2.72 4.666H3.5l4.498-7.307L3.613 45.2h3.953Zm11.179 14.615V45.2h3.506v11.746h6.036v2.869h-9.542Zm19.199-10.234c-.047-.523-.258-.93-.63-1.22-.369-.295-.895-.442-1.58-.442-.454 0-.831.06-1.134.178-.302.119-.529.283-.68.492-.15.205-.229.44-.234.707-.009.219.033.411.128.578.1.166.24.314.425.442.189.124.416.233.68.329.265.095.562.178.893.25l1.246.285a8.72 8.72 0 0 1 1.899.628 5.129 5.129 0 0 1 1.388.935c.378.361.664.777.858 1.248.193.471.292 1 .297 1.585-.005.923-.236 1.715-.694 2.376-.458.661-1.117 1.168-1.977 1.52-.854.352-1.886.528-3.095.528-1.214 0-2.272-.183-3.174-.55-.902-.366-1.603-.922-2.104-1.67-.5-.746-.758-1.69-.772-2.832h3.358c.028.47.153.863.375 1.177.222.314.527.552.914.714.392.162.845.242 1.36.242.472 0 .874-.064 1.204-.192.336-.129.593-.307.773-.536.179-.228.271-.49.276-.785a1.087 1.087 0 0 0-.255-.706c-.166-.2-.42-.371-.765-.514a7.822 7.822 0 0 0-1.304-.407l-1.516-.356c-1.256-.29-2.245-.76-2.968-1.406-.722-.652-1.081-1.532-1.077-2.64-.004-.904.237-1.697.723-2.377.486-.68 1.16-1.21 2.019-1.591.86-.38 1.84-.571 2.94-.571 1.124 0 2.099.193 2.925.578.832.38 1.476.916 1.934 1.606.458.69.692 1.489.702 2.397h-3.358Z" fill="#DAC48E"/></svg><svg fill="none" viewBox="0 0 17 16" id="tg" xmlns="http://www.w3.org/2000/svg"><path d="M1.48 7.097s7.077-3.073 9.532-4.155c.94-.433 4.13-1.818 4.13-1.818s1.474-.606 1.35.865c-.04.606-.367 2.727-.695 5.021a6003.74 6003.74 0 0 0-1.022 6.796s-.082.996-.777 1.17c-.696.172-1.841-.607-2.045-.78-.164-.13-3.068-2.078-4.132-3.03-.286-.26-.613-.78.041-1.385a160.28 160.28 0 0 0 4.295-4.329c.49-.52.982-1.731-1.064-.26C8.19 7.315 5.326 9.306 5.326 9.306s-.655.433-1.882.043c-1.227-.391-2.658-.91-2.658-.91s-.982-.65.695-1.342Z" fill="#39CAF8"/></svg><svg fill="none" viewBox="0 0 17 16" id="vk" xmlns="http://www.w3.org/2000/svg"><path d="M9.312 12.992C3.907 12.992.627 9.238.5 3h2.74c.083 4.58 2.172 6.53 3.766 6.927V3h2.62v3.958C11.17 6.786 12.78 4.987 13.319 3h2.583c-.412 2.444-2.171 4.243-3.407 4.985 1.243.6 3.235 2.174 4.006 5.015h-2.838c-.599-1.897-2.066-3.366-4.035-3.568V13h-.315v-.008Z" fill="#4584FF"/></svg><svg fill="none" viewBox="0 0 17 16" id="wa" xmlns="http://www.w3.org/2000/svg"><path d="M8.502 0h-.004C4.087 0 .5 3.588.5 8a7.94 7.94 0 0 0 1.523 4.689l-.997 2.972 3.075-.983A7.93 7.93 0 0 0 8.502 16c4.411 0 7.998-3.589 7.998-8s-3.587-8-7.998-8Zm4.655 11.297c-.193.545-.959.997-1.57 1.129-.418.089-.964.16-2.802-.602-2.351-.974-3.865-3.363-3.983-3.518-.113-.155-.95-1.265-.95-2.413s.583-1.707.818-1.947c.193-.197.512-.287.818-.287.099 0 .188.005.268.009.235.01.353.024.508.395.193.465.663 1.613.719 1.731.057.118.114.278.034.433-.075.16-.141.231-.259.367-.118.136-.23.24-.348.386-.108.127-.23.263-.094.498.136.23.606.997 1.298 1.613.893.795 1.617 1.049 1.876 1.157.193.08.423.061.564-.089.179-.193.4-.513.625-.828.16-.226.362-.254.574-.174.216.075 1.359.64 1.594.757.235.118.39.174.447.273.056.099.056.564-.137 1.11Z" fill="#4CCE37"/></svg></svg>